<?xml version="1.0" encoding="UTF-8" standalone="no"?>
<!DOCTYPE svg PUBLIC "-//W3C//DTD SVG 1.1//EN"
 "http://www.w3.org/Graphics/SVG/1.1/DTD/svg11.dtd">
<!-- Generated by graphviz version 13.1.0 (20250701.0955)
 -->
<!-- Title: interface/driver_mcp4725_interface.h Pages: 1 -->
<svg width="522pt" height="176pt"
 viewBox="0.00 0.00 522.00 176.00" xmlns="http://www.w3.org/2000/svg" xmlns:xlink="http://www.w3.org/1999/xlink">
<g id="graph0" class="graph" transform="scale(1 1) rotate(0) translate(4 172)">
<title>interface/driver_mcp4725_interface.h</title>
<!-- Node1 -->
<g id="Node000001" class="node">
<title>Node1</title>
<g id="a_Node000001"><a xlink:title="driver mcp4725 interface header file">
<polygon fill="#999999" stroke="#666666" points="334.12,-168 208.62,-168 208.62,-136 334.12,-136 334.12,-168"/>
<text xml:space="preserve" text-anchor="start" x="216.62" y="-154.5" font-family="Helvetica,sans-Serif" font-size="10.00">interface/driver_mcp4725</text>
<text xml:space="preserve" text-anchor="middle" x="271.38" y="-142.5" font-family="Helvetica,sans-Serif" font-size="10.00">_interface.h</text>
</a>
</g>
</g>
<!-- Node2 -->
<g id="Node000002" class="node">
<title>Node2</title>
<g id="a_Node000002"><a xlink:href="driver__mcp4725__basic_8h.html" target="_top" xlink:title="driver mcp4725 basic header file">
<polygon fill="white" stroke="#666666" points="124.75,-100 0,-100 0,-68 124.75,-68 124.75,-100"/>
<text xml:space="preserve" text-anchor="start" x="8" y="-86.5" font-family="Helvetica,sans-Serif" font-size="10.00">example/driver_mcp4725</text>
<text xml:space="preserve" text-anchor="middle" x="62.38" y="-74.5" font-family="Helvetica,sans-Serif" font-size="10.00">_basic.h</text>
</a>
</g>
</g>
<!-- Node1&#45;&gt;Node2 -->
<g id="edge1_Node000001_Node000002" class="edge">
<title>Node1&#45;&gt;Node2</title>
<g id="a_edge1_Node000001_Node000002"><a xlink:title=" ">
<path fill="none" stroke="#63b8ff" d="M211.47,-132.08C179.77,-122.07 141.34,-109.94 111.43,-100.49"/>
<polygon fill="#63b8ff" stroke="#63b8ff" points="210.34,-135.4 220.93,-135.07 212.45,-128.72 210.34,-135.4"/>
</a>
</g>
</g>
<!-- Node4 -->
<g id="Node000004" class="node">
<title>Node4</title>
<g id="a_Node000004"><a xlink:href="driver__mcp4725__interface__template_8c.html" target="_top" xlink:title="driver mcp4725 interface template source file">
<polygon fill="white" stroke="#666666" points="268.12,-100 142.62,-100 142.62,-68 268.12,-68 268.12,-100"/>
<text xml:space="preserve" text-anchor="start" x="150.62" y="-86.5" font-family="Helvetica,sans-Serif" font-size="10.00">interface/driver_mcp4725</text>
<text xml:space="preserve" text-anchor="middle" x="205.38" y="-74.5" font-family="Helvetica,sans-Serif" font-size="10.00">_interface_template.c</text>
</a>
</g>
</g>
<!-- Node1&#45;&gt;Node4 -->
<g id="edge3_Node000001_Node000004" class="edge">
<title>Node1&#45;&gt;Node4</title>
<g id="a_edge3_Node000001_Node000004"><a xlink:title=" ">
<path fill="none" stroke="#63b8ff" d="M248.08,-127.71C238.96,-118.59 228.75,-108.37 220.6,-100.22"/>
<polygon fill="#63b8ff" stroke="#63b8ff" points="245.45,-130.03 255,-134.62 250.4,-125.08 245.45,-130.03"/>
</a>
</g>
</g>
<!-- Node5 -->
<g id="Node000005" class="node">
<title>Node5</title>
<g id="a_Node000005"><a xlink:href="driver__mcp4725__register__test_8h.html" target="_top" xlink:title="driver mcp4725 register test header file">
<polygon fill="white" stroke="#666666" points="390.62,-100 286.12,-100 286.12,-68 390.62,-68 390.62,-100"/>
<text xml:space="preserve" text-anchor="start" x="294.12" y="-86.5" font-family="Helvetica,sans-Serif" font-size="10.00">test/driver_mcp4725</text>
<text xml:space="preserve" text-anchor="middle" x="338.38" y="-74.5" font-family="Helvetica,sans-Serif" font-size="10.00">_register_test.h</text>
</a>
</g>
</g>
<!-- Node1&#45;&gt;Node5 -->
<g id="edge4_Node000001_Node000005" class="edge">
<title>Node1&#45;&gt;Node5</title>
<g id="a_edge4_Node000001_Node000005"><a xlink:title=" ">
<path fill="none" stroke="#63b8ff" d="M295.02,-127.71C304.28,-118.59 314.65,-108.37 322.92,-100.22"/>
<polygon fill="#63b8ff" stroke="#63b8ff" points="292.66,-125.12 287.99,-134.63 297.57,-130.11 292.66,-125.12"/>
</a>
</g>
</g>
<!-- Node7 -->
<g id="Node000007" class="node">
<title>Node7</title>
<g id="a_Node000007"><a xlink:href="driver__mcp4725__write__test_8h.html" target="_top" xlink:title="driver mcp4725 write test header file">
<polygon fill="white" stroke="#666666" points="513.62,-100 409.12,-100 409.12,-68 513.62,-68 513.62,-100"/>
<text xml:space="preserve" text-anchor="start" x="417.12" y="-86.5" font-family="Helvetica,sans-Serif" font-size="10.00">test/driver_mcp4725</text>
<text xml:space="preserve" text-anchor="middle" x="461.38" y="-74.5" font-family="Helvetica,sans-Serif" font-size="10.00">_write_test.h</text>
</a>
</g>
</g>
<!-- Node1&#45;&gt;Node7 -->
<g id="edge6_Node000001_Node000007" class="edge">
<title>Node1&#45;&gt;Node7</title>
<g id="a_edge6_Node000001_Node000007"><a xlink:title=" ">
<path fill="none" stroke="#63b8ff" d="M326.59,-131.82C355.26,-121.86 389.83,-109.85 416.78,-100.49"/>
<polygon fill="#63b8ff" stroke="#63b8ff" points="325.65,-128.44 317.35,-135.03 327.95,-135.05 325.65,-128.44"/>
</a>
</g>
</g>
<!-- Node3 -->
<g id="Node000003" class="node">
<title>Node3</title>
<g id="a_Node000003"><a xlink:href="driver__mcp4725__basic_8c.html" target="_top" xlink:title="driver mcp4725 basic source file">
<polygon fill="white" stroke="#666666" points="124.75,-32 0,-32 0,0 124.75,0 124.75,-32"/>
<text xml:space="preserve" text-anchor="start" x="8" y="-18.5" font-family="Helvetica,sans-Serif" font-size="10.00">example/driver_mcp4725</text>
<text xml:space="preserve" text-anchor="middle" x="62.38" y="-6.5" font-family="Helvetica,sans-Serif" font-size="10.00">_basic.c</text>
</a>
</g>
</g>
<!-- Node2&#45;&gt;Node3 -->
<g id="edge2_Node000002_Node000003" class="edge">
<title>Node2&#45;&gt;Node3</title>
<g id="a_edge2_Node000002_Node000003"><a xlink:title=" ">
<path fill="none" stroke="#63b8ff" d="M62.38,-56.31C62.38,-48.12 62.38,-39.38 62.38,-32.22"/>
<polygon fill="#63b8ff" stroke="#63b8ff" points="58.88,-56.18 62.38,-66.18 65.88,-56.18 58.88,-56.18"/>
</a>
</g>
</g>
<!-- Node6 -->
<g id="Node000006" class="node">
<title>Node6</title>
<g id="a_Node000006"><a xlink:href="driver__mcp4725__register__test_8c.html" target="_top" xlink:title="driver mcp4725 register test source file">
<polygon fill="white" stroke="#666666" points="390.62,-32 286.12,-32 286.12,0 390.62,0 390.62,-32"/>
<text xml:space="preserve" text-anchor="start" x="294.12" y="-18.5" font-family="Helvetica,sans-Serif" font-size="10.00">test/driver_mcp4725</text>
<text xml:space="preserve" text-anchor="middle" x="338.38" y="-6.5" font-family="Helvetica,sans-Serif" font-size="10.00">_register_test.c</text>
</a>
</g>
</g>
<!-- Node5&#45;&gt;Node6 -->
<g id="edge5_Node000005_Node000006" class="edge">
<title>Node5&#45;&gt;Node6</title>
<g id="a_edge5_Node000005_Node000006"><a xlink:title=" ">
<path fill="none" stroke="#63b8ff" d="M338.38,-56.31C338.38,-48.12 338.38,-39.38 338.38,-32.22"/>
<polygon fill="#63b8ff" stroke="#63b8ff" points="334.88,-56.18 338.38,-66.18 341.88,-56.18 334.88,-56.18"/>
</a>
</g>
</g>
<!-- Node8 -->
<g id="Node000008" class="node">
<title>Node8</title>
<g id="a_Node000008"><a xlink:href="driver__mcp4725__write__test_8c.html" target="_top" xlink:title="driver mcp4725 write test source file">
<polygon fill="white" stroke="#666666" points="513.62,-32 409.12,-32 409.12,0 513.62,0 513.62,-32"/>
<text xml:space="preserve" text-anchor="start" x="417.12" y="-18.5" font-family="Helvetica,sans-Serif" font-size="10.00">test/driver_mcp4725</text>
<text xml:space="preserve" text-anchor="middle" x="461.38" y="-6.5" font-family="Helvetica,sans-Serif" font-size="10.00">_write_test.c</text>
</a>
</g>
</g>
<!-- Node7&#45;&gt;Node8 -->
<g id="edge7_Node000007_Node000008" class="edge">
<title>Node7&#45;&gt;Node8</title>
<g id="a_edge7_Node000007_Node000008"><a xlink:title=" ">
<path fill="none" stroke="#63b8ff" d="M461.38,-56.31C461.38,-48.12 461.38,-39.38 461.38,-32.22"/>
<polygon fill="#63b8ff" stroke="#63b8ff" points="457.88,-56.18 461.38,-66.18 464.88,-56.18 457.88,-56.18"/>
</a>
</g>
</g>
</g>
</svg>
