<?xml version="1.0" encoding="UTF-8" standalone="no"?>
<!DOCTYPE svg PUBLIC "-//W3C//DTD SVG 1.1//EN"
 "http://www.w3.org/Graphics/SVG/1.1/DTD/svg11.dtd">
<!-- Generated by graphviz version 13.1.0 (20250701.0955)
 -->
<!-- Title: mcp4725_basic_init Pages: 1 -->
<svg width="292pt" height="506pt"
 viewBox="0.00 0.00 292.00 506.00" xmlns="http://www.w3.org/2000/svg" xmlns:xlink="http://www.w3.org/1999/xlink">
<g id="graph0" class="graph" transform="scale(1 1) rotate(0) translate(4 502)">
<title>mcp4725_basic_init</title>
<!-- Node1 -->
<g id="Node000001" class="node">
<title>Node1</title>
<g id="a_Node000001"><a xlink:title="basic example init">
<polygon fill="#999999" stroke="#666666" points="102.25,-262 0,-262 0,-242 102.25,-242 102.25,-262"/>
<text xml:space="preserve" text-anchor="middle" x="51.12" y="-248.5" font-family="Helvetica,sans-Serif" font-size="10.00">mcp4725_basic_init</text>
</a>
</g>
</g>
<!-- Node2 -->
<g id="Node000002" class="node">
<title>Node2</title>
<g id="a_Node000002"><a xlink:href="group__mcp4725__base__driver.html#ga3f29e55f5d349d4daa6c6f634f238645" target="_top" xlink:title="close the chip">
<polygon fill="white" stroke="#666666" points="253.25,-498 169,-498 169,-478 253.25,-478 253.25,-498"/>
<text xml:space="preserve" text-anchor="middle" x="211.12" y="-484.5" font-family="Helvetica,sans-Serif" font-size="10.00">mcp4725_deinit</text>
</a>
</g>
</g>
<!-- Node1&#45;&gt;Node2 -->
<g id="edge1_Node000001_Node000002" class="edge">
<title>Node1&#45;&gt;Node2</title>
<g id="a_edge1_Node000001_Node000002"><a xlink:title=" ">
<path fill="none" stroke="#63b8ff" d="M53.03,-262.46C56.62,-297.42 73.06,-411.17 138.25,-469 143.96,-474.06 150.86,-477.8 158.11,-480.56"/>
<polygon fill="#63b8ff" stroke="#63b8ff" points="156.83,-483.83 167.42,-483.48 158.93,-477.15 156.83,-483.83"/>
</a>
</g>
</g>
<!-- Node3 -->
<g id="Node000003" class="node">
<title>Node3</title>
<g id="a_Node000003"><a xlink:href="group__mcp4725__base__driver.html#ga9264048c1d1700d48e0aa8a446bd46b0" target="_top" xlink:title="initialize the chip">
<polygon fill="white" stroke="#666666" points="248,-460 174.25,-460 174.25,-440 248,-440 248,-460"/>
<text xml:space="preserve" text-anchor="middle" x="211.12" y="-446.5" font-family="Helvetica,sans-Serif" font-size="10.00">mcp4725_init</text>
</a>
</g>
</g>
<!-- Node1&#45;&gt;Node3 -->
<g id="edge2_Node000001_Node000003" class="edge">
<title>Node1&#45;&gt;Node3</title>
<g id="a_edge2_Node000001_Node000003"><a xlink:title=" ">
<path fill="none" stroke="#63b8ff" d="M53.97,-262.35C60.02,-293.11 82.15,-384.66 138.25,-431 145.4,-436.9 154.19,-440.99 163.14,-443.81"/>
<polygon fill="#63b8ff" stroke="#63b8ff" points="162.01,-447.14 172.57,-446.29 163.79,-440.36 162.01,-447.14"/>
</a>
</g>
</g>
<!-- Node4 -->
<g id="Node000004" class="node">
<title>Node4</title>
<g id="a_Node000004"><a xlink:href="group__mcp4725__interface__driver.html#ga99618b2471a3f069cea0474c1e435b91" target="_top" xlink:title="interface print format data">
<polygon fill="white" stroke="#666666" points="276.12,-422 146.12,-422 146.12,-390 276.12,-390 276.12,-422"/>
<text xml:space="preserve" text-anchor="start" x="154.12" y="-408.5" font-family="Helvetica,sans-Serif" font-size="10.00">mcp4725_interface_debug</text>
<text xml:space="preserve" text-anchor="middle" x="211.12" y="-396.5" font-family="Helvetica,sans-Serif" font-size="10.00">_print</text>
</a>
</g>
</g>
<!-- Node1&#45;&gt;Node4 -->
<g id="edge3_Node000001_Node000004" class="edge">
<title>Node1&#45;&gt;Node4</title>
<g id="a_edge3_Node000001_Node000004"><a xlink:title=" ">
<path fill="none" stroke="#63b8ff" d="M56.26,-262.36C66.48,-286.64 95.23,-347.72 138.25,-381 139.56,-382.01 140.91,-382.98 142.29,-383.92"/>
<polygon fill="#63b8ff" stroke="#63b8ff" points="140.19,-386.74 150.59,-388.78 143.73,-380.7 140.19,-386.74"/>
</a>
</g>
</g>
<!-- Node5 -->
<g id="Node000005" class="node">
<title>Node5</title>
<g id="a_Node000005"><a xlink:href="group__mcp4725__interface__driver.html#ga6bfcaf31fe710ca0180993d674e8e899" target="_top" xlink:title="interface delay ms">
<polygon fill="white" stroke="#666666" points="284,-372 138.25,-372 138.25,-352 284,-352 284,-372"/>
<text xml:space="preserve" text-anchor="middle" x="211.12" y="-358.5" font-family="Helvetica,sans-Serif" font-size="10.00">mcp4725_interface_delay_ms</text>
</a>
</g>
</g>
<!-- Node1&#45;&gt;Node5 -->
<g id="edge4_Node000001_Node000005" class="edge">
<title>Node1&#45;&gt;Node5</title>
<g id="a_edge4_Node000001_Node000005"><a xlink:title=" ">
<path fill="none" stroke="#63b8ff" d="M58.85,-262.22C71.85,-281.15 102.34,-321.68 138.25,-343 140.87,-344.55 143.61,-345.98 146.43,-347.29"/>
<polygon fill="#63b8ff" stroke="#63b8ff" points="144.95,-350.47 155.53,-350.99 147.59,-343.98 144.95,-350.47"/>
</a>
</g>
</g>
<!-- Node6 -->
<g id="Node000006" class="node">
<title>Node6</title>
<g id="a_Node000006"><a xlink:href="group__mcp4725__interface__driver.html#gad70bc698dad96ea46c4346da9742e773" target="_top" xlink:title="interface iic bus deinit">
<polygon fill="white" stroke="#666666" points="267.88,-334 154.38,-334 154.38,-302 267.88,-302 267.88,-334"/>
<text xml:space="preserve" text-anchor="start" x="162.38" y="-320.5" font-family="Helvetica,sans-Serif" font-size="10.00">mcp4725_interface_iic</text>
<text xml:space="preserve" text-anchor="middle" x="211.12" y="-308.5" font-family="Helvetica,sans-Serif" font-size="10.00">_deinit</text>
</a>
</g>
</g>
<!-- Node1&#45;&gt;Node6 -->
<g id="edge5_Node000001_Node000006" class="edge">
<title>Node1&#45;&gt;Node6</title>
<g id="a_edge5_Node000001_Node000006"><a xlink:title=" ">
<path fill="none" stroke="#63b8ff" d="M72.38,-262.42C89.65,-271.11 115.27,-283.57 138.25,-293 142.08,-294.57 146.05,-296.13 150.07,-297.67"/>
<polygon fill="#63b8ff" stroke="#63b8ff" points="148.74,-300.91 159.33,-301.1 151.18,-294.34 148.74,-300.91"/>
</a>
</g>
</g>
<!-- Node7 -->
<g id="Node000007" class="node">
<title>Node7</title>
<g id="a_Node000007"><a xlink:href="group__mcp4725__interface__driver.html#gab203890921af2ea3edc7c40318619b9d" target="_top" xlink:title="interface iic bus init">
<polygon fill="white" stroke="#666666" points="276.88,-284 145.38,-284 145.38,-264 276.88,-264 276.88,-284"/>
<text xml:space="preserve" text-anchor="middle" x="211.12" y="-270.5" font-family="Helvetica,sans-Serif" font-size="10.00">mcp4725_interface_iic_init</text>
</a>
</g>
</g>
<!-- Node1&#45;&gt;Node7 -->
<g id="edge6_Node000001_Node000007" class="edge">
<title>Node1&#45;&gt;Node7</title>
<g id="a_edge6_Node000001_Node000007"><a xlink:title=" ">
<path fill="none" stroke="#63b8ff" d="M102.55,-259.02C112.61,-260.42 123.37,-261.92 134.07,-263.41"/>
<polygon fill="#63b8ff" stroke="#63b8ff" points="133.27,-266.83 143.66,-264.75 134.24,-259.9 133.27,-266.83"/>
</a>
</g>
</g>
<!-- Node8 -->
<g id="Node000008" class="node">
<title>Node8</title>
<g id="a_Node000008"><a xlink:href="group__mcp4725__interface__driver.html#ga1e588651014632608cc555107d50eeca" target="_top" xlink:title="interface iic bus read command">
<polygon fill="white" stroke="#666666" points="267.88,-246 154.38,-246 154.38,-214 267.88,-214 267.88,-246"/>
<text xml:space="preserve" text-anchor="start" x="162.38" y="-232.5" font-family="Helvetica,sans-Serif" font-size="10.00">mcp4725_interface_iic</text>
<text xml:space="preserve" text-anchor="middle" x="211.12" y="-220.5" font-family="Helvetica,sans-Serif" font-size="10.00">_read_cmd</text>
</a>
</g>
</g>
<!-- Node1&#45;&gt;Node8 -->
<g id="edge7_Node000001_Node000008" class="edge">
<title>Node1&#45;&gt;Node8</title>
<g id="a_edge7_Node000001_Node000008"><a xlink:title=" ">
<path fill="none" stroke="#63b8ff" d="M102.55,-244.98C115.39,-243.19 129.4,-241.24 142.93,-239.36"/>
<polygon fill="#63b8ff" stroke="#63b8ff" points="143.23,-242.85 152.65,-238 142.26,-235.92 143.23,-242.85"/>
</a>
</g>
</g>
<!-- Node9 -->
<g id="Node000009" class="node">
<title>Node9</title>
<g id="a_Node000009"><a xlink:href="group__mcp4725__interface__driver.html#ga91295b4922f4616a65f73fb51148f8a4" target="_top" xlink:title="interface iic bus write command">
<polygon fill="white" stroke="#666666" points="267.88,-196 154.38,-196 154.38,-164 267.88,-164 267.88,-196"/>
<text xml:space="preserve" text-anchor="start" x="162.38" y="-182.5" font-family="Helvetica,sans-Serif" font-size="10.00">mcp4725_interface_iic</text>
<text xml:space="preserve" text-anchor="middle" x="211.12" y="-170.5" font-family="Helvetica,sans-Serif" font-size="10.00">_write_cmd</text>
</a>
</g>
</g>
<!-- Node1&#45;&gt;Node9 -->
<g id="edge8_Node000001_Node000009" class="edge">
<title>Node1&#45;&gt;Node9</title>
<g id="a_edge8_Node000001_Node000009"><a xlink:title=" ">
<path fill="none" stroke="#63b8ff" d="M69.18,-241.6C86.26,-231.45 113.49,-215.97 138.25,-205 141.74,-203.45 145.35,-201.94 149.02,-200.47"/>
<polygon fill="#63b8ff" stroke="#63b8ff" points="149.97,-203.86 158.04,-196.99 147.45,-197.32 149.97,-203.86"/>
</a>
</g>
</g>
<!-- Node10 -->
<g id="Node000010" class="node">
<title>Node10</title>
<g id="a_Node000010"><a xlink:href="group__mcp4725__base__driver.html#gaf1d6a6d9d9472584654d2dd12384caab" target="_top" xlink:title="set the chip address pin">
<polygon fill="white" stroke="#666666" points="269.38,-146 152.88,-146 152.88,-126 269.38,-126 269.38,-146"/>
<text xml:space="preserve" text-anchor="middle" x="211.12" y="-132.5" font-family="Helvetica,sans-Serif" font-size="10.00">mcp4725_set_addr_pin</text>
</a>
</g>
</g>
<!-- Node1&#45;&gt;Node10 -->
<g id="edge9_Node000001_Node000010" class="edge">
<title>Node1&#45;&gt;Node10</title>
<g id="a_edge9_Node000001_Node000010"><a xlink:title=" ">
<path fill="none" stroke="#63b8ff" d="M58.29,-241.72C70.77,-221.79 101.04,-177.89 138.25,-155 140.7,-153.49 143.27,-152.1 145.92,-150.82"/>
<polygon fill="#63b8ff" stroke="#63b8ff" points="147.19,-154.08 155.06,-146.99 144.49,-147.63 147.19,-154.08"/>
</a>
</g>
</g>
<!-- Node11 -->
<g id="Node000011" class="node">
<title>Node11</title>
<g id="a_Node000011"><a xlink:href="group__mcp4725__base__driver.html#ga9f72c596443ed017d4b077ac45ac7bdd" target="_top" xlink:title="set the chip mode">
<polygon fill="white" stroke="#666666" points="263,-108 159.25,-108 159.25,-88 263,-88 263,-108"/>
<text xml:space="preserve" text-anchor="middle" x="211.12" y="-94.5" font-family="Helvetica,sans-Serif" font-size="10.00">mcp4725_set_mode</text>
</a>
</g>
</g>
<!-- Node1&#45;&gt;Node11 -->
<g id="edge10_Node000001_Node000011" class="edge">
<title>Node1&#45;&gt;Node11</title>
<g id="a_edge10_Node000001_Node000011"><a xlink:title=" ">
<path fill="none" stroke="#63b8ff" d="M55.67,-241.69C64.95,-216.31 92.45,-150.44 138.25,-117 141.42,-114.68 144.85,-112.65 148.44,-110.87"/>
<polygon fill="#63b8ff" stroke="#63b8ff" points="149.63,-114.16 157.48,-107.05 146.9,-107.72 149.63,-114.16"/>
</a>
</g>
</g>
<!-- Node12 -->
<g id="Node000012" class="node">
<title>Node12</title>
<g id="a_Node000012"><a xlink:href="group__mcp4725__base__driver.html#ga5d8ee88c9dd2f0ce4df8296c52446bd6" target="_top" xlink:title="set the chip power mode">
<polygon fill="white" stroke="#666666" points="278.75,-70 143.5,-70 143.5,-50 278.75,-50 278.75,-70"/>
<text xml:space="preserve" text-anchor="middle" x="211.12" y="-56.5" font-family="Helvetica,sans-Serif" font-size="10.00">mcp4725_set_power_mode</text>
</a>
</g>
</g>
<!-- Node1&#45;&gt;Node12 -->
<g id="edge11_Node000001_Node000012" class="edge">
<title>Node1&#45;&gt;Node12</title>
<g id="a_edge11_Node000001_Node000012"><a xlink:title=" ">
<path fill="none" stroke="#63b8ff" d="M54.18,-241.56C60.67,-211.41 83.63,-123.5 138.25,-79 139.56,-77.93 140.93,-76.92 142.34,-75.97"/>
<polygon fill="#63b8ff" stroke="#63b8ff" points="143.88,-79.12 150.91,-71.19 140.47,-73 143.88,-79.12"/>
</a>
</g>
</g>
<!-- Node13 -->
<g id="Node000013" class="node">
<title>Node13</title>
<g id="a_Node000013"><a xlink:href="group__mcp4725__base__driver.html#ga9a1fc9cf6ebb6f937ee53cb36e8ef621" target="_top" xlink:title="set the chip reference voltage">
<polygon fill="white" stroke="#666666" points="271.25,-32 151,-32 151,0 271.25,0 271.25,-32"/>
<text xml:space="preserve" text-anchor="start" x="159" y="-18.5" font-family="Helvetica,sans-Serif" font-size="10.00">mcp4725_set_reference</text>
<text xml:space="preserve" text-anchor="middle" x="211.12" y="-6.5" font-family="Helvetica,sans-Serif" font-size="10.00">_voltage</text>
</a>
</g>
</g>
<!-- Node1&#45;&gt;Node13 -->
<g id="edge12_Node000001_Node000013" class="edge">
<title>Node1&#45;&gt;Node13</title>
<g id="a_edge12_Node000001_Node000013"><a xlink:title=" ">
<path fill="none" stroke="#63b8ff" d="M53.36,-241.53C57.91,-207.56 76.82,-99.27 138.25,-41 139.3,-40 140.39,-39.04 141.52,-38.13"/>
<polygon fill="#63b8ff" stroke="#63b8ff" points="143.27,-41.17 149.55,-32.65 139.32,-35.39 143.27,-41.17"/>
</a>
</g>
</g>
</g>
</svg>
