<?xml version="1.0" encoding="UTF-8" standalone="no"?>
<!DOCTYPE svg PUBLIC "-//W3C//DTD SVG 1.1//EN"
 "http://www.w3.org/Graphics/SVG/1.1/DTD/svg11.dtd">
<!-- Generated by graphviz version 13.1.0 (20250701.0955)
 -->
<!-- Title: mcp4725_basic_write Pages: 1 -->
<svg width="261pt" height="78pt"
 viewBox="0.00 0.00 261.00 78.00" xmlns="http://www.w3.org/2000/svg" xmlns:xlink="http://www.w3.org/1999/xlink">
<g id="graph0" class="graph" transform="scale(1 1) rotate(0) translate(4 74)">
<title>mcp4725_basic_write</title>
<!-- Node1 -->
<g id="Node000001" class="node">
<title>Node1</title>
<g id="a_Node000001"><a xlink:title="basic example write">
<polygon fill="#999999" stroke="#666666" points="110.5,-42 0,-42 0,-22 110.5,-22 110.5,-42"/>
<text xml:space="preserve" text-anchor="middle" x="55.25" y="-28.5" font-family="Helvetica,sans-Serif" font-size="10.00">mcp4725_basic_write</text>
</a>
</g>
</g>
<!-- Node2 -->
<g id="Node000002" class="node">
<title>Node2</title>
<g id="a_Node000002"><a xlink:href="group__mcp4725__base__driver.html#ga83c08368d2e225688cb3dfe5bfe95d48" target="_top" xlink:title="convert the dac value to the register data">
<polygon fill="white" stroke="#666666" points="253.25,-70 146.5,-70 146.5,-38 253.25,-38 253.25,-70"/>
<text xml:space="preserve" text-anchor="start" x="154.5" y="-56.5" font-family="Helvetica,sans-Serif" font-size="10.00">mcp4725_convert_to</text>
<text xml:space="preserve" text-anchor="middle" x="199.88" y="-44.5" font-family="Helvetica,sans-Serif" font-size="10.00">_register</text>
</a>
</g>
</g>
<!-- Node1&#45;&gt;Node2 -->
<g id="edge1_Node000001_Node000002" class="edge">
<title>Node1&#45;&gt;Node2</title>
<g id="a_edge1_Node000001_Node000002"><a xlink:title=" ">
<path fill="none" stroke="#63b8ff" d="M110.98,-40.44C118.89,-41.66 127.08,-42.93 135.14,-44.17"/>
<polygon fill="#63b8ff" stroke="#63b8ff" points="134.49,-47.61 144.9,-45.67 135.55,-40.69 134.49,-47.61"/>
</a>
</g>
</g>
<!-- Node3 -->
<g id="Node000003" class="node">
<title>Node3</title>
<g id="a_Node000003"><a xlink:href="group__mcp4725__base__driver.html#ga83909a319e10a30c370af3e42f52dd5a" target="_top" xlink:title="write the dac value">
<polygon fill="white" stroke="#666666" points="240.88,-20 158.88,-20 158.88,0 240.88,0 240.88,-20"/>
<text xml:space="preserve" text-anchor="middle" x="199.88" y="-6.5" font-family="Helvetica,sans-Serif" font-size="10.00">mcp4725_write</text>
</a>
</g>
</g>
<!-- Node1&#45;&gt;Node3 -->
<g id="edge2_Node000001_Node000003" class="edge">
<title>Node1&#45;&gt;Node3</title>
<g id="a_edge2_Node000001_Node000003"><a xlink:title=" ">
<path fill="none" stroke="#63b8ff" d="M110.98,-23.56C123.01,-21.7 135.7,-19.74 147.58,-17.91"/>
<polygon fill="#63b8ff" stroke="#63b8ff" points="147.84,-21.41 157.19,-16.43 146.77,-14.5 147.84,-21.41"/>
</a>
</g>
</g>
</g>
</svg>
